# xmcd
#
# Track frame offsets:
#	150
#	11798
#	21635
#	32496
#	42649
#	51042
#	60203
#	71406
#	83425
#	92049
#	103344
#	115814
#	125485
#	136319
#	147981
#	159093
#	167823
#	180691
#	188459
#	198225
#	215049
#	226214
#
# Disc length: 3234 seconds
#
# Revision: 0
# Processed by: cddbd v1.5.2PL0 Copyright (c) Steve Scherf et al.
# Submitted via: audiograbber 1.83.01
#
DISCID=2b0ca016
DTITLE=Collection Dansez ! - Rock'n'Roll
DYEAR=2008
DGENRE=Rock and Roll
TTITLE0=Gene Vincent - Be bop a lula
TTITLE1=Bill Haley and the Comets - Rock around the clock
TTITLE2=Little Richard - Tutti futti
TTITLE3=Carl Perkins - Blue Suede shoes
TTITLE4=Jerry Lee Lewis - Great balls of fire
TTITLE5=Gene Vincent - Race with the devil
TTITLE6=Bill Haley and the Comets - Shake rattle and rock
TTITLE7=Little Richard - Slippin' and sliding
TTITLE8=Fats Domino - I'm in love again
TTITLE9=Buddy Holly - Peggy Sue
TTITLE10=Bill Haley and the Comets - See you later alligator
TTITLE11=Little Richard - Long tall Sally
TTITLE12=Chuck Berry - Roll over Beethoven
TTITLE13=Bill Haley and the Comets - Saints rock'n'roll
TTITLE14=Buddy Holly - That'll be the day
TTITLE15=Elvis Presley - Ready Teddy
TTITLE16=Ray Charles - I got a woman
TTITLE17=Eddie Cochran - Twenty flight rock
TTITLE18=Billy Bridge - Bye bye Johnny
TTITLE19=Billy Bridge - Gimme loving
TTITLE20=The Hedgedogs - Rock it
TTITLE21=Billy Bridge - Rock'n'roll story
EXTD=
EXTT0=
EXTT1=
EXTT2=
EXTT3=
EXTT4=
EXTT5=
EXTT6=
EXTT7=
EXTT8=
EXTT9=
EXTT10=
EXTT11=
EXTT12=
EXTT13=
EXTT14=
EXTT15=
EXTT16=
EXTT17=
EXTT18=
EXTT19=
EXTT20=
EXTT21=
PLAYORDER=
